<svg width="171" height="100" viewBox="0 0 171 100" version="1.1" xmlns="http://www.w3.org/2000/svg" xmlns:xlink="http://www.w3.org/1999/xlink">
<title>Group 2</title>
<desc>Created using Figma</desc>
<g id="Canvas" transform="translate(-32 213)">
<g id="Group 2">
<g id="RIOT!">
<use xlink:href="#path0_fill" transform="translate(32.2188 -212.797)" fill="#FFFFFF"/>
<use xlink:href="#path1_fill" transform="translate(32.2188 -212.797)" fill="#FFFFFF"/>
<use xlink:href="#path2_fill" transform="translate(32.2188 -212.797)" fill="#FFFFFF"/>
<use xlink:href="#path3_fill" transform="translate(32.2188 -212.797)" fill="#FFFFFF"/>
<use xlink:href="#path4_fill" transform="translate(32.2188 -212.797)" fill="#FFFFFF"/>
</g>
<g id=".JS CUSTOMISER">
<use xlink:href="#path5_fill" transform="translate(34.7074 -126.151)" fill="#FFFFFF"/>
<use xlink:href="#path6_fill" transform="translate(34.7074 -126.151)" fill="#FFFFFF"/>
<use xlink:href="#path7_fill" transform="translate(34.7074 -126.151)" fill="#FFFFFF"/>
<use xlink:href="#path8_fill" transform="translate(34.7074 -126.151)" fill="#FFFFFF"/>
<use xlink:href="#path9_fill" transform="translate(34.7074 -126.151)" fill="#FFFFFF"/>
<use xlink:href="#path10_fill" transform="translate(34.7074 -126.151)" fill="#FFFFFF"/>
<use xlink:href="#path11_fill" transform="translate(34.7074 -126.151)" fill="#FFFFFF"/>
<use xlink:href="#path12_fill" transform="translate(34.7074 -126.151)" fill="#FFFFFF"/>
<use xlink:href="#path13_fill" transform="translate(34.7074 -126.151)" fill="#FFFFFF"/>
<use xlink:href="#path14_fill" transform="translate(34.7074 -126.151)" fill="#FFFFFF"/>
<use xlink:href="#path15_fill" transform="translate(34.7074 -126.151)" fill="#FFFFFF"/>
<use xlink:href="#path16_fill" transform="translate(34.7074 -126.151)" fill="#FFFFFF"/>
<use xlink:href="#path17_fill" transform="translate(34.7074 -126.151)" fill="#FFFFFF"/>
</g>
</g>
</g>
<defs>
<path id="path0_fill" d="M 41.2031 73.9219L 40.9219 74.1094L 40.2188 74.1094L 39.4688 73.7344L 38.4844 73.1719L 36 71.3438L 34.2656 69.7969L 32.4375 67.5L 31.0312 65.5781L 29.8594 63.5625L 28.4062 62.0156L 26.3906 59.5312L 24.0938 57.3281L 21.9844 55.4062L 20.3438 53.2969L 17.9531 50.4844L 16.2188 47.9062L 14.3906 45.6094L 12.6562 43.5L 10.6406 41.7656L 8.4375 40.5L 6.32812 40.5L 6.23438 41.8594L 5.57812 44.0625L 5.01562 47.5312L 4.92188 49.6406L 4.40625 51.4688L 3.75 56.3438L 3.5625 59.1562L 3.5625 60.8906L 3.28125 64.8281L 3.28125 65.7656L 3.75 66.5156L 4.5 67.4062L 4.92188 68.625L 4.6875 69.3281L 4.21875 69.9844L 3.375 70.3594L 2.48438 70.1719L 1.82812 69.6094L 1.35938 68.8594L 0.1875 66.9375L 0 64.5938L 0 61.7344L 0.1875 57.2344L 0.65625 55.4062L 0.890625 54.2344L 0.890625 51.9375L 1.17188 50.5781L 1.45312 49.1719L 1.54688 47.625L 2.01562 45.6094L 2.20312 43.4062L 2.67188 41.0156L 2.8125 38.4844L 3.28125 36.8906L 3.375 35.0625L 3.375 32.8594L 3.65625 30.6094L 3.75 28.2188L 4.6875 23.25L 5.01562 21.4219L 5.01562 19.5938L 5.10938 17.0156L 5.76562 15.2812L 6.32812 13.6406L 5.95312 12L 6.32812 10.2656L 5.57812 8.4375L 5.85938 6.9375L 6.60938 5.57812L 8.625 5.39062L 10.6406 4.03125L 12.5625 3.75L 15.2812 3.65625L 18.1406 3.75L 21.3281 4.03125L 22.875 4.6875L 24.1875 5.20312L 25.5469 6.23438L 27.0938 7.6875L 28.0312 9.42188L 29.0156 11.25L 29.8594 13.6406L 29.8594 15.1875L 30.7031 17.0156L 30.6094 19.125L 30.8438 20.1562L 30.6094 22.2656L 30.2344 24.0938L 29.9531 26.2031L 29.8594 28.125L 29.4844 29.7656L 28.5938 31.7812L 27.2812 33.4219L 25.9219 34.3594L 24.4688 35.5312L 23.0625 36.2812L 21.7031 37.1719L 21.7031 39L 22.1719 40.4062L 22.7344 41.8594L 23.0625 43.2188L 24.375 46.4531L 26.3906 49.8281L 27.2812 51.375L 28.125 53.2969L 29.4844 55.7812L 30.2344 57.3281L 31.5 59.1562L 32.1562 61.1719L 32.9531 63L 34.1719 64.9219L 35.1562 66.5156L 36.6562 68.3438L 38.4844 70.0781L 39.75 71.4375L 40.6875 72.6562L 41.1094 73.2656L 41.2031 73.9219ZM 9.98438 48.2812L 9.89062 48.9844L 9.14062 48.75L 9.04688 48.2812L 9.79688 47.625L 9.98438 48.2812ZM 22.1719 20.25L 21.5156 18.2344L 21.9844 16.2188L 21.5156 15.375L 21.5156 11.8125L 20.5312 10.3594L 18.6094 9.79688L 17.0156 9.14062L 16.2188 9.51562L 15.5625 9.42188L 12.5625 10.4531L 12 11.3438L 11.625 12.4688L 11.25 14.0156L 10.875 16.0312L 10.875 17.7656L 9.79688 22.7344L 8.85938 25.1719L 8.25 27.1875L 8.0625 29.4844L 8.25 30.6094L 8.0625 32.1562L 9.04688 32.9531L 10.4531 33.3281L 11.7188 32.625L 14.0156 32.0625L 17.0156 31.5L 18.6094 30.4219L 20.3438 29.0156L 20.9531 27.5625L 20.625 26.6719L 20.9531 25.7344L 20.9531 24L 21.0469 22.3594L 22.1719 20.25ZM 21.3281 17.5781L 20.5312 18.0469L 20.0625 17.3906L 20.5312 16.5938L 21.3281 16.9219L 21.3281 17.5781Z"/>
<path id="path1_fill" d="M 69.0938 60.9844L 68.25 61.6406L 67.3594 62.1094L 64.5 62.1094L 61.875 62.4844L 59.5781 63.1875L 57.9375 63.75L 56.5312 64.3125L 55.3594 65.2031L 54.8906 66.3281L 54.9844 67.4062L 55.1719 68.9531L 54.9844 69.5156L 54.5156 69.8906L 54.0938 69.8906L 53.625 69.5156L 53.1562 68.625L 52.2188 68.5312L 50.9531 68.9531L 50.2969 69.6094L 49.4062 70.3594L 48.0469 70.9688L 46.3594 71.4375L 45 71.4375L 43.7344 70.9688L 42.4219 70.0781L 42 68.9531L 40.9688 68.1562L 40.2188 67.2188L 40.0781 65.2031L 40.6875 63.4688L 41.9062 62.1094L 43.1719 61.0781L 45 59.4375L 47.2031 58.5469L 49.2188 58.5469L 50.2969 58.3594L 51.2344 57.5156L 51.7969 57.4219L 52.2188 56.625L 51.7969 54.5156L 51.7031 53.2031L 51.3281 51.4688L 51.4219 49.1719L 51.3281 47.7188L 51.6094 46.1719L 51.3281 44.3438L 51.2344 42.6094L 51.2344 41.2969L 50.8594 38.2969L 50.8594 29.7656L 50.2969 28.9219L 51.2344 27.6562L 50.7656 24.0938L 50.7656 19.2188L 50.3906 17.6719L 50.8594 15.9375L 49.5938 16.0312L 48.1875 16.3125L 47.0156 16.3125L 43.1719 17.0156L 42.0938 17.0156L 41.1562 17.4844L 39.2344 17.7656L 37.6875 17.7656L 36.1875 17.2031L 35.3906 16.5938L 34.9219 15.5625L 35.2031 14.2031L 35.8594 13.3594L 37.2188 12.8906L 38.8594 13.2656L 40.3125 13.8281L 41.4375 13.8281L 43.3594 14.1094L 45.9375 14.1094L 48.5625 14.2031L 50.5781 14.2031L 50.5781 13.0781L 50.9531 12.0938L 50.8594 11.4375L 50.9531 10.6406L 50.3906 9.23438L 50.3906 7.59375L 50.9531 6.70312L 50.5781 5.10938L 51.6094 4.125L 53.1562 3.75L 54.5156 3.5625L 55.8281 3.75L 56.1562 5.29688L 56.3438 6.60938L 56.625 7.6875L 56.5312 9.04688L 56.625 10.3594L 55.8281 11.625L 55.7344 12.5625L 56.1562 13.2656L 57.0938 13.3594L 58.9219 13.3594L 60.6562 13.7344L 63.1406 13.7344L 64.5938 13.9219L 66 13.9219L 66.4219 14.2031L 66.4219 14.6719L 65.3438 15L 63.1406 14.7656L 61.5 15L 59.5781 15L 57.5625 15.2812L 56.1562 15.5625L 54.9844 16.3125L 54.9844 17.8594L 54.8906 19.875L 54.5156 21.8906L 54.7031 23.5312L 54.3281 24.75L 54.8906 26.2969L 54.4219 28.5L 54.4219 30.1406L 54.3281 32.8594L 53.8125 34.1719L 54.0938 35.1562L 54.0938 37.2656L 53.8125 39.0938L 54.0938 41.1094L 53.9062 43.6875L 53.9062 50.1094L 53.625 52.125L 53.8125 54.3281L 54.0938 56.625L 55.7344 57.0469L 57.1875 57.1406L 58.8281 57.5156L 60.6562 58.3594L 62.0625 58.4531L 64.5 58.9688L 66.2344 59.8125L 67.2656 59.625L 68.5312 59.8125L 69.0938 60.1875L 69.0938 60.9844ZM 71.1094 57.2344L 70.4531 57.7031L 69.75 56.7188L 70.3594 56.0625L 71.1094 56.5312L 71.1094 57.2344Z"/>
<path id="path2_fill" d="M 90.8438 14.5781L 90 15.2812L 89.7188 14.5781L 90 13.6406L 90.8438 13.8281L 90.8438 14.5781ZM 111.609 43.4062L 110.906 47.8125L 109.172 52.3125L 107.953 54.9375L 106.781 56.5312L 105.234 58.4531L 103.453 60.2812L 101.297 61.4531L 98.1562 62.3906L 94.7812 62.9062L 91.5469 62.4844L 88.6406 61.9219L 86.3438 60.6562L 82.0312 58.0781L 79.5469 55.6875L 78.2812 54.3281L 76.6406 52.3125L 75.6094 49.7344L 74.9062 47.1562L 74.5312 44.4375L 74.9062 42.4219L 74.4375 39.8438L 73.875 37.9219L 74.5312 35.625L 74.5312 34.4531L 75.1875 33.7031L 75.1875 31.875L 75.7969 30.7031L 76.8281 29.4844L 77.5312 27L 78.8438 24.75L 80.2969 23.1562L 81.3281 21.3281L 82.5938 21.1406L 84.0469 19.9688L 85.0781 19.5L 86.4375 18.8438L 87.7969 17.7656L 89.2969 17.2031L 90.75 15.75L 92.1094 14.1094L 92.5781 13.6406L 93.75 13.0781L 95.5781 13.4531L 97.2656 14.5781L 98.7188 16.2188L 99.2812 18.7031L 99 20.4375L 97.1719 22.2656L 94.7812 23.3438L 91.5469 23.5312L 89.4375 26.3906L 88.0781 29.2969L 86.5312 31.4062L 85.1719 35.0625L 84.7969 38.6719L 84.0469 41.9531L 85.3594 45.3281L 85.7812 48.5625L 87.5156 50.5781L 89.2031 54.4219L 90.4688 54.7031L 91.125 55.4062L 92.6719 55.7812L 94.7812 56.0625L 97.2656 55.4062L 99.7031 54.6094L 101.203 53.3906L 101.297 50.0156L 102.375 49.3594L 102.281 46.6406L 102.938 44.8594L 103.219 42.9375L 103.828 41.2969L 103.453 39.6562L 103.219 37.1719L 102.281 35.4375L 101.016 34.5469L 100.078 32.625L 98.4375 30.4219L 98.7188 28.5938L 99.2812 27L 100.359 26.2969L 101.906 26.2969L 103.922 27.5625L 105.844 28.5938L 106.781 30.4219L 108.047 31.5938L 108.422 33.5156L 109.172 35.4375L 109.781 36.9844L 110.812 38.4844L 111.094 41.0156L 111.609 43.4062ZM 75.375 28.9219L 74.625 29.4844L 73.875 29.8594L 73.7812 28.9219L 74.25 27.9375L 75.0938 27.9375L 75.375 28.9219Z"/>
<path id="path3_fill" d="M 162.656 11.1562L 161.766 11.5312L 161.109 11.3438L 159.188 11.0625L 156.516 10.7344L 153.422 10.7344L 149.672 10.9688L 145.641 11.5312L 142.031 11.625L 138.844 12.2812L 136.266 12.75L 133.453 13.6406L 131.344 14.2031L 129.328 14.6719L 128.672 15.4688L 127.406 16.2188L 125.766 17.1094L 123.844 17.6719L 121.266 18.0469L 118.688 18.1406L 116.391 17.3906L 115.031 16.5L 113.672 15.5625L 112.453 14.4844L 112.266 13.1719L 112.453 11.625L 113.297 10.4531L 114.094 9.70312L 115.312 9.32812L 117.234 8.34375L 119.062 7.875L 121.969 7.59375L 125.109 7.59375L 129.141 7.875L 133.172 7.875L 137.484 7.59375L 141.047 7.5L 142.594 7.21875L 144.609 7.40625L 146.812 7.03125L 149.203 7.5L 151.406 7.40625L 153.422 7.59375L 157.266 8.0625L 159.094 8.0625L 162.188 9.60938L 162.656 10.4531L 162.656 11.1562ZM 126.188 0.984375L 125.578 1.73438L 124.828 0.984375L 125.297 0L 126.188 0.28125L 126.188 0.984375ZM 138 18.9375L 137.484 19.7812L 137.109 21.7031L 137.109 23.4375L 136.828 25.6406L 136.828 27.5625L 136.641 29.1094L 136.266 30.4219L 136.641 31.5L 135.984 32.7188L 135.844 34.3594L 135.844 35.8125L 135.469 37.6406L 135.281 39.75L 135.094 41.3906L 135.281 43.3125L 134.906 45.5156L 134.812 47.625L 134.812 49.3594L 134.906 51.5625L 135.094 53.9531L 134.906 56.25L 134.906 58.7344L 134.625 60.8906L 134.812 62.9062L 134.812 65.1094L 134.906 67.125L 134.812 69.1406L 134.156 69.7969L 133.969 69.3281L 133.734 68.4375L 133.969 66.9375L 134.062 65.1094L 133.641 64.0312L 133.734 62.2031L 133.453 61.1719L 133.172 59.7188L 133.172 54.9375L 132.797 53.3906L 132.797 51.6562L 132.609 49.8281L 132.609 47.625L 132.422 45.7969L 132.422 43.875L 132.609 41.9531L 132.609 39.375L 132.422 36.75L 132.422 32.625L 132.328 31.125L 132.703 29.6719L 132.703 27.8438L 132.609 25.5469L 131.812 23.3438L 131.344 21.3281L 130.594 19.7812L 130.406 18.2344L 130.406 16.9219L 131.062 15.8438L 132.234 14.6719L 133.734 14.4844L 134.906 14.9062L 136.266 16.0312L 137.297 17.2969L 138 18.9375Z"/>
<path id="path4_fill" d="M 169.031 13.2656L 168.75 14.5781L 168.281 16.0312L 167.906 17.5781L 167.672 19.125L 167.391 21.1406L 167.203 23.4375L 166.922 26.1094L 166.828 28.4062L 166.547 31.0312L 166.359 36L 166.359 38.2969L 165.984 42.8438L 165.891 45.1406L 165.984 47.3438L 166.172 49.3594L 166.172 54.7031L 165 57.0469L 164.25 57.4219L 163.453 57.0469L 162.984 55.9688L 163.266 54.9375L 162.891 52.9219L 162.797 50.6719L 162.328 46.3594L 161.953 44.9531L 161.531 43.2188L 161.531 39.375L 161.25 37.9219L 161.25 36.2812L 161.625 35.3438L 161.438 34.1719L 161.438 31.5L 161.156 30.2344L 161.062 28.9219L 160.406 27.4688L 159.844 23.9062L 159.844 21.9844L 159.422 19.5938L 159.75 17.7656L 159.75 15.9375L 159.422 14.6719L 159.047 13.2656L 158.578 11.8125L 158.578 10.5469L 158.766 9.60938L 159.047 8.71875L 160.125 7.875L 161.438 7.40625L 162.984 7.40625L 164.719 7.5L 165.891 8.0625L 166.922 8.71875L 167.672 9.60938L 168.375 10.5469L 168.75 11.5312L 169.031 13.2656ZM 170.766 65.1094L 170.297 66.3281L 169.406 69.3281L 167.906 69.8906L 167.016 70.7344L 165.891 72L 164.25 72.4688L 162.609 72.8906L 161.438 70.2656L 160.406 69.4219L 160.125 67.9688L 160.594 67.125L 161.156 65.9531L 162.328 64.9219L 163.781 64.125L 165.094 63.75L 166.359 64.2188L 167.297 64.4062L 168.375 64.125L 169.406 63.6562L 170.484 64.125L 170.766 65.1094Z"/>
<path id="path5_fill" d="M 0 9.42676C 0 9.12142 0.0683594 8.89128 0.205078 8.73633C 0.346354 8.57682 0.546875 8.49707 0.806641 8.49707C 1.07096 8.49707 1.27604 8.57682 1.42188 8.73633C 1.57227 8.89128 1.64746 9.12142 1.64746 9.42676C 1.64746 9.72298 1.57227 9.95085 1.42188 10.1104C 1.27148 10.2699 1.06641 10.3496 0.806641 10.3496C 0.574219 10.3496 0.380534 10.279 0.225586 10.1377C 0.0751953 9.99186 0 9.75488 0 9.42676Z"/>
<path id="path6_fill" d="M 6.81133 12.7832C 6.38294 12.7832 6.0457 12.7217 5.79961 12.5986L 5.79961 11.6074C 6.12318 11.6986 6.46042 11.7441 6.81133 11.7441C 7.2625 11.7441 7.6043 11.6074 7.83672 11.334C 8.0737 11.0605 8.19219 10.6663 8.19219 10.1514L 8.19219 0.157227L 9.3543 0.157227L 9.3543 10.0557C 9.3543 10.9215 9.13555 11.5915 8.69805 12.0654C 8.26055 12.5439 7.63164 12.7832 6.81133 12.7832Z"/>
<path id="path7_fill" d="M 21.8531 7.49219C 21.8531 8.37174 21.5341 9.05762 20.8961 9.5498C 20.2581 10.042 19.3922 10.2881 18.2984 10.2881C 17.1135 10.2881 16.2021 10.1354 15.5641 9.83008L 15.5641 8.70898C 15.9742 8.88216 16.4208 9.01888 16.9039 9.11914C 17.387 9.2194 17.8655 9.26953 18.3395 9.26953C 19.1142 9.26953 19.6975 9.1237 20.0895 8.83203C 20.4814 8.53581 20.6773 8.12565 20.6773 7.60156C 20.6773 7.25521 20.6067 6.97266 20.4654 6.75391C 20.3287 6.5306 20.0963 6.32552 19.7682 6.13867C 19.4446 5.95182 18.9501 5.73991 18.2848 5.50293C 17.3551 5.17025 16.6897 4.77604 16.2887 4.32031C 15.8922 3.86458 15.6939 3.26986 15.6939 2.53613C 15.6939 1.76595 15.9833 1.15299 16.5621 0.697266C 17.1409 0.241536 17.9065 0.0136719 18.859 0.0136719C 19.8525 0.0136719 20.7662 0.195964 21.6002 0.560547L 21.2379 1.57227C 20.413 1.22591 19.6109 1.05273 18.8316 1.05273C 18.2164 1.05273 17.7356 1.1849 17.3893 1.44922C 17.0429 1.71354 16.8697 2.0804 16.8697 2.5498C 16.8697 2.89616 16.9335 3.18099 17.0611 3.4043C 17.1887 3.62305 17.4029 3.82585 17.7037 4.0127C 18.009 4.19499 18.4739 4.39779 19.0982 4.62109C 20.1464 4.99479 20.8665 5.39583 21.2584 5.82422C 21.6549 6.2526 21.8531 6.80859 21.8531 7.49219Z"/>
<path id="path8_fill" d="M 40.2131 1.05273C 39.1148 1.05273 38.2466 1.4196 37.6086 2.15332C 36.9751 2.88249 36.6584 3.88281 36.6584 5.1543C 36.6584 6.46224 36.9637 7.47396 37.5744 8.18945C 38.1896 8.90039 39.0646 9.25586 40.1994 9.25586C 40.8967 9.25586 41.6919 9.13053 42.5852 8.87988L 42.5852 9.89844C 41.8924 10.1582 41.038 10.2881 40.0217 10.2881C 38.5497 10.2881 37.4126 9.84147 36.6105 8.94824C 35.813 8.05501 35.4143 6.78581 35.4143 5.14062C 35.4143 4.11068 35.6057 3.20833 35.9885 2.43359C 36.3758 1.65885 36.9318 1.06185 37.6564 0.642578C 38.3856 0.223307 39.2424 0.0136719 40.2268 0.0136719C 41.2749 0.0136719 42.1909 0.205078 42.9748 0.587891L 42.4826 1.58594C 41.7261 1.23047 40.9696 1.05273 40.2131 1.05273Z"/>
<path id="path9_fill" d="M 56.5127 0.157227L 56.5127 6.62402C 56.5127 7.76335 56.1686 8.65885 55.4805 9.31055C 54.7923 9.96224 53.8467 10.2881 52.6436 10.2881C 51.4404 10.2881 50.5085 9.95996 49.8477 9.30371C 49.1914 8.64746 48.8633 7.74512 48.8633 6.59668L 48.8633 0.157227L 50.0254 0.157227L 50.0254 6.67871C 50.0254 7.5127 50.2533 8.15299 50.709 8.59961C 51.1647 9.04622 51.8346 9.26953 52.7188 9.26953C 53.5618 9.26953 54.2113 9.04622 54.667 8.59961C 55.1227 8.14844 55.3506 7.50358 55.3506 6.66504L 55.3506 0.157227L 56.5127 0.157227Z"/>
<path id="path10_fill" d="M 69.0047 7.49219C 69.0047 8.37174 68.6857 9.05762 68.0477 9.5498C 67.4096 10.042 66.5437 10.2881 65.45 10.2881C 64.2651 10.2881 63.3536 10.1354 62.7156 9.83008L 62.7156 8.70898C 63.1258 8.88216 63.5724 9.01888 64.0555 9.11914C 64.5385 9.2194 65.0171 9.26953 65.491 9.26953C 66.2658 9.26953 66.8491 9.1237 67.241 8.83203C 67.6329 8.53581 67.8289 8.12565 67.8289 7.60156C 67.8289 7.25521 67.7583 6.97266 67.617 6.75391C 67.4803 6.5306 67.2478 6.32552 66.9197 6.13867C 66.5962 5.95182 66.1017 5.73991 65.4363 5.50293C 64.5066 5.17025 63.8413 4.77604 63.4402 4.32031C 63.0437 3.86458 62.8455 3.26986 62.8455 2.53613C 62.8455 1.76595 63.1349 1.15299 63.7137 0.697266C 64.2924 0.241536 65.0581 0.0136719 66.0105 0.0136719C 67.004 0.0136719 67.9178 0.195964 68.7518 0.560547L 68.3895 1.57227C 67.5646 1.22591 66.7625 1.05273 65.9832 1.05273C 65.368 1.05273 64.8872 1.1849 64.5408 1.44922C 64.1945 1.71354 64.0213 2.0804 64.0213 2.5498C 64.0213 2.89616 64.0851 3.18099 64.2127 3.4043C 64.3403 3.62305 64.5545 3.82585 64.8553 4.0127C 65.1606 4.19499 65.6255 4.39779 66.2498 4.62109C 67.298 4.99479 68.018 5.39583 68.41 5.82422C 68.8064 6.2526 69.0047 6.80859 69.0047 7.49219Z"/>
<path id="path11_fill" d="M 78.3248 10.1514L 77.1627 10.1514L 77.1627 1.18945L 73.9977 1.18945L 73.9977 0.157227L 81.4898 0.157227L 81.4898 1.18945L 78.3248 1.18945L 78.3248 10.1514Z"/>
<path id="path12_fill" d="M 95.8754 5.14062C 95.8754 6.74023 95.4698 7.99805 94.6586 8.91406C 93.852 9.83008 92.7286 10.2881 91.2885 10.2881C 89.8165 10.2881 88.6794 9.83919 87.8773 8.94141C 87.0798 8.03906 86.6811 6.76758 86.6811 5.12695C 86.6811 3.5 87.0821 2.23991 87.8842 1.34668C 88.6863 0.448893 89.8256 0 91.3021 0C 92.7377 0 93.8588 0.455729 94.6654 1.36719C 95.4721 2.27865 95.8754 3.53646 95.8754 5.14062ZM 87.9115 5.14062C 87.9115 6.49414 88.1986 7.52181 88.7729 8.22363C 89.3516 8.9209 90.1902 9.26953 91.2885 9.26953C 92.3959 9.26953 93.2322 8.9209 93.7973 8.22363C 94.3624 7.52637 94.6449 6.4987 94.6449 5.14062C 94.6449 3.79622 94.3624 2.77767 93.7973 2.08496C 93.2367 1.3877 92.405 1.03906 91.3021 1.03906C 90.1947 1.03906 89.3516 1.38997 88.7729 2.0918C 88.1986 2.78906 87.9115 3.80534 87.9115 5.14062Z"/>
<path id="path13_fill" d="M 106.734 10.1514L 103.343 1.29199L 103.288 1.29199C 103.352 1.99382 103.384 2.8278 103.384 3.79395L 103.384 10.1514L 102.311 10.1514L 102.311 0.157227L 104.061 0.157227L 107.226 8.40137L 107.28 8.40137L 110.473 0.157227L 112.209 0.157227L 112.209 10.1514L 111.047 10.1514L 111.047 3.71191C 111.047 2.97363 111.079 2.17155 111.143 1.30566L 111.088 1.30566L 107.67 10.1514L 106.734 10.1514Z"/>
<path id="path14_fill" d="M 119.157 10.1514L 119.157 0.157227L 120.319 0.157227L 120.319 10.1514L 119.157 10.1514Z"/>
<path id="path15_fill" d="M 132.907 7.49219C 132.907 8.37174 132.588 9.05762 131.95 9.5498C 131.312 10.042 130.446 10.2881 129.352 10.2881C 128.167 10.2881 127.256 10.1354 126.618 9.83008L 126.618 8.70898C 127.028 8.88216 127.475 9.01888 127.958 9.11914C 128.441 9.2194 128.919 9.26953 129.393 9.26953C 130.168 9.26953 130.751 9.1237 131.143 8.83203C 131.535 8.53581 131.731 8.12565 131.731 7.60156C 131.731 7.25521 131.661 6.97266 131.519 6.75391C 131.383 6.5306 131.15 6.32552 130.822 6.13867C 130.498 5.95182 130.004 5.73991 129.339 5.50293C 128.409 5.17025 127.744 4.77604 127.343 4.32031C 126.946 3.86458 126.748 3.26986 126.748 2.53613C 126.748 1.76595 127.037 1.15299 127.616 0.697266C 128.195 0.241536 128.96 0.0136719 129.913 0.0136719C 130.906 0.0136719 131.82 0.195964 132.654 0.560547L 132.292 1.57227C 131.467 1.22591 130.665 1.05273 129.886 1.05273C 129.27 1.05273 128.789 1.1849 128.443 1.44922C 128.097 1.71354 127.924 2.0804 127.924 2.5498C 127.924 2.89616 127.987 3.18099 128.115 3.4043C 128.243 3.62305 128.457 3.82585 128.758 4.0127C 129.063 4.19499 129.528 4.39779 130.152 4.62109C 131.2 4.99479 131.92 5.39583 132.312 5.82422C 132.709 6.2526 132.907 6.80859 132.907 7.49219Z"/>
<path id="path16_fill" d="M 144.722 10.1514L 139.151 10.1514L 139.151 0.157227L 144.722 0.157227L 144.722 1.18945L 140.313 1.18945L 140.313 4.40918L 144.456 4.40918L 144.456 5.43457L 140.313 5.43457L 140.313 9.1123L 144.722 9.1123L 144.722 10.1514Z"/>
<path id="path17_fill" d="M 152.306 5.99512L 152.306 10.1514L 151.144 10.1514L 151.144 0.157227L 153.885 0.157227C 155.111 0.157227 156.016 0.391927 156.599 0.861328C 157.187 1.33073 157.481 2.03711 157.481 2.98047C 157.481 4.30208 156.811 5.19531 155.471 5.66016L 158.185 10.1514L 156.811 10.1514L 154.391 5.99512L 152.306 5.99512ZM 152.306 4.99707L 153.899 4.99707C 154.719 4.99707 155.321 4.83529 155.704 4.51172C 156.086 4.18359 156.278 3.69368 156.278 3.04199C 156.278 2.38118 156.082 1.90495 155.69 1.61328C 155.302 1.32161 154.678 1.17578 153.817 1.17578L 152.306 1.17578L 152.306 4.99707Z"/>
</defs>
</svg>
